<?xml version="1.0" standalone="no"?>
<!DOCTYPE svg PUBLIC "-//W3C//DTD SVG 20010904//EN"
 "http://www.w3.org/TR/2001/REC-SVG-20010904/DTD/svg10.dtd">
<svg version="1.0" xmlns="http://www.w3.org/2000/svg"
 width="300.000000pt" height="168.000000pt" viewBox="0 0 300.000000 168.000000"
 preserveAspectRatio="xMidYMid meet">
<metadata>
Created by potrace 1.10, written by Peter Selinger 2001-2011
</metadata>
<g transform="translate(0.000000,168.000000) scale(0.100000,-0.100000)"
fill="#000000" stroke="none">
<path d="M170 1091 c-20 -4 -42 -11 -49 -15 -20 -13 -41 -71 -41 -116 0 -41 0
-41 -30 -35 -30 7 -30 7 -30 -40 0 -47 0 -47 30 -40 l30 7 0 -131 0 -131 48 0
47 0 -3 131 -4 132 41 -6 c30 -4 41 -2 41 8 0 7 3 27 6 45 l7 32 -48 -8 -48
-7 6 39 c8 46 31 67 70 61 25 -3 27 -1 27 35 0 31 -4 38 -19 38 -11 0 -25 2
-33 4 -7 2 -29 1 -48 -3z m40 -41 c0 -5 -5 -10 -11 -10 -20 0 -48 -44 -49 -76
0 -33 14 -55 45 -72 15 -9 16 -11 4 -12 -9 0 -24 -9 -35 -21 -15 -17 -19 -38
-21 -108 -1 -47 -2 -94 -2 -103 -1 -10 -8 -18 -16 -18 -12 0 -15 18 -15 103 0
91 -2 106 -20 122 -24 22 -25 33 -4 56 9 10 20 40 25 66 6 30 18 54 32 65 24
19 67 24 67 8z"/>
<path d="M1435 1093 c-19 -4 -20 -12 -20 -253 l0 -250 43 0 c39 0 42 2 42 28
1 23 2 24 11 9 16 -27 64 -47 112 -47 144 0 211 205 101 311 -50 49 -149 54
-194 9 -20 -20 -20 -20 -20 90 l0 110 -27 -1 c-16 -1 -37 -4 -48 -6z m45 -113
c0 -52 4 -73 20 -93 l21 -26 -21 -38 c-25 -47 -25 -88 -2 -135 19 -36 19 -36
-4 -48 -42 -23 -47 -12 -46 115 0 283 1 305 17 299 11 -5 15 -23 15 -74z m202
-96 c40 -21 72 -93 65 -147 -10 -71 -74 -135 -124 -122 l-28 7 30 13 c43 20
63 38 75 69 33 87 -21 176 -105 176 -14 0 -24 4 -21 8 9 15 77 12 108 -4z
m-27 -59 c19 -18 25 -35 25 -70 0 -58 -32 -95 -82 -95 -55 1 -88 40 -88 105 0
49 36 85 85 85 25 0 44 -8 60 -25z"/>
<path d="M2648 1093 l-28 -4 0 -252 0 -252 50 0 50 0 0 80 1 80 26 -30 c113
-130 103 -122 170 -128 l63 -5 -80 91 c-44 51 -79 95 -78 99 2 4 31 39 66 77
34 38 62 72 62 75 0 3 -24 6 -52 6 l-53 -1 -60 -74 -60 -74 -3 159 c-3 179 4
165 -74 153z m42 -166 c0 -96 3 -127 16 -145 15 -21 15 -25 0 -41 -9 -10 -16
-35 -16 -57 0 -48 -12 -71 -27 -52 -15 19 -17 396 -2 414 23 27 29 1 29 -119z
m170 -55 c0 -5 -8 -17 -19 -28 -53 -58 -50 -96 12 -163 71 -77 21 -59 -55 20
-39 41 -68 71 -64 68 4 -4 32 20 63 52 57 60 63 65 63 51z"/>
<path d="M350 907 c-100 -67 -100 -236 0 -304 70 -48 201 -13 191 50 -1 4 6
21 14 37 19 37 19 93 0 131 -9 16 -13 34 -10 39 4 6 -7 24 -24 40 -25 26 -37
30 -84 30 -40 0 -63 -6 -87 -23z m115 -17 c-3 -5 -15 -10 -25 -10 -31 0 -87
-56 -94 -95 -14 -75 39 -154 105 -155 22 -1 22 -2 6 -11 -31 -18 -83 -2 -116
37 -27 30 -31 42 -31 95 0 70 18 112 57 132 32 17 107 22 98 7z m54 -66 c50
-64 12 -164 -61 -164 -73 1 -110 78 -73 150 17 33 27 38 77 39 28 1 41 -5 57
-25z"/>
<path d="M550 900 c0 -27 2 -29 18 -21 34 18 41 0 40 -119 -1 -123 -8 -146
-39 -129 -16 8 -19 6 -19 -15 0 -21 5 -24 45 -28 l45 -3 0 172 0 173 -45 0
c-43 0 -45 -1 -45 -30z"/>
<path d="M764 905 c-89 -53 -107 -183 -37 -266 59 -70 177 -79 262 -21 13 9
11 15 -25 70 -1 2 -16 -4 -33 -12 -70 -37 -138 -4 -148 71 -5 37 -2 45 26 74
27 27 37 30 74 27 23 -3 50 -8 59 -12 12 -6 21 0 32 23 9 16 16 32 16 34 0 3
-18 12 -40 21 -61 24 -137 21 -186 -9z m156 -15 c11 -7 2 -10 -31 -10 -95 0
-159 -84 -128 -166 20 -52 72 -87 122 -82 20 2 36 0 34 -5 -4 -13 -82 -19
-109 -8 -58 23 -89 71 -90 142 0 57 18 91 65 119 34 21 111 27 137 10z"/>
<path d="M1104 911 c-78 -48 -106 -156 -62 -241 43 -83 165 -116 266 -70 45
21 51 33 27 68 -14 19 -18 20 -38 8 -56 -35 -142 -26 -171 19 -9 14 -13 25 -9
26 5 0 62 0 127 -1 l119 -1 -6 54 c-11 110 -59 157 -162 157 -41 0 -70 -6 -91
-19z m69 -18 c-29 -6 -83 -59 -83 -82 0 -9 9 -27 19 -38 19 -20 19 -21 2 -38
-11 -9 -17 -24 -14 -36 7 -24 59 -69 81 -69 14 0 14 -2 3 -9 -24 -15 -71 9
-103 53 -26 36 -29 48 -26 92 3 29 11 59 20 68 9 9 18 20 20 24 5 14 61 40 83
40 17 -1 16 -1 -2 -5z m86 -9 c37 -18 58 -47 67 -91 5 -27 3 -31 -20 -35 -30
-6 -39 2 -25 22 23 37 -3 88 -56 110 -11 5 -15 9 -9 9 6 1 25 -6 43 -15z m-9
-44 c40 -40 27 -50 -60 -50 -87 0 -95 6 -55 45 31 32 86 34 115 5z"/>
<path d="M1898 910 c-96 -52 -115 -200 -36 -277 41 -40 76 -53 137 -53 136 0
219 131 162 256 -29 63 -72 88 -156 92 -54 2 -78 -2 -107 -18z m178 -29 c17
-10 41 -35 54 -55 41 -67 10 -165 -64 -200 -34 -16 -86 -18 -86 -4 0 4 9 8 20
8 59 0 110 58 110 125 0 123 -144 171 -211 69 -37 -57 -15 -151 44 -177 28
-13 39 -44 11 -33 -9 3 -19 6 -23 6 -4 0 -22 13 -40 29 -74 66 -58 187 31 236
36 20 118 18 154 -4z m-21 -56 c55 -54 19 -165 -54 -165 -43 0 -60 9 -76 41
-38 72 -2 149 70 149 25 0 44 -8 60 -25z"/>
<path d="M2298 910 c-54 -29 -83 -82 -83 -155 0 -107 70 -175 180 -175 103 0
172 62 181 162 7 70 -24 133 -81 165 -52 29 -144 31 -197 3z m172 -25 c80 -42
105 -157 47 -219 -43 -45 -70 -56 -129 -52 -198 12 -194 286 5 286 26 0 61 -7
77 -15z"/>
<path d="M2345 868 c-47 -28 -74 -90 -61 -143 11 -42 57 -85 98 -92 65 -10
128 47 128 117 0 71 -50 130 -109 130 -20 0 -45 -6 -56 -12z m110 -43 c55 -54
19 -165 -54 -165 -43 0 -60 9 -76 41 -38 72 -2 149 70 149 25 0 44 -8 60 -25z"/>
</g>
</svg>
